<?xml version="1.0" encoding="UTF-8"?>
<svg width="32" height="32" viewBox="0 0 32 32" fill="none" xmlns="http://www.w3.org/2000/svg">
  <rect width="32" height="32" rx="8" fill="#1E293B"/>
  <path d="M16 6L24 10V16C24 21.0533 20.5733 25.72 16 27C11.4267 25.72 8 21.0533 8 16V10L16 6Z" stroke="#3B82F6" stroke-width="2" stroke-linecap="round" stroke-linejoin="round"/>
  <path d="M16 13L19 14.5V18C19 20.32 17.7867 22.432 16 23.2C14.2133 22.432 13 20.32 13 18V14.5L16 13Z" fill="#60A5FA" stroke="#3B82F6" stroke-width="1.5" stroke-linecap="round" stroke-linejoin="round"/>
  <path d="M16 17L17 17.5V19C17 19.8533 16.5933 20.6107 16 21C15.4067 20.6107 15 19.8533 15 19V17.5L16 17Z" fill="#93C5FD"/>
</svg>
