<?xml version="1.0" encoding="UTF-8"?>
<svg width="120" height="120" viewBox="0 0 120 120" fill="none" xmlns="http://www.w3.org/2000/svg">
  <rect width="120" height="120" rx="24" fill="#1E293B"/>
  <path d="M60 30L90 45V60C90 75.16 80.15 88.58 60 95C39.85 88.58 30 75.16 30 60V45L60 30Z" stroke="#3B82F6" stroke-width="4" stroke-linecap="round" stroke-linejoin="round"/>
  <path d="M60 45L75 52.5V67.5C75 75.48 69.2 82.62 60 85.5C50.8 82.62 45 75.48 45 67.5V52.5L60 45Z" fill="#60A5FA" stroke="#3B82F6" stroke-width="3" stroke-linecap="round" stroke-linejoin="round"/>
  <path d="M60 60L65 62.5V67.5C65 70.28 63.18 72.72 60 74C56.82 72.72 55 70.28 55 67.5V62.5L60 60Z" fill="#93C5FD"/>
  <path d="M60 52L68 56L60 60L52 56L60 52Z" fill="#DBEAFE"/>
</svg>
